<?xml version="1.0" encoding="utf-8"?>
<!-- Generator: Adobe Illustrator 24.1.3, SVG Export Plug-In . SVG Version: 6.00 Build 0)  -->
<svg version="1.1" id="Layer_1" xmlns="http://www.w3.org/2000/svg" xmlns:xlink="http://www.w3.org/1999/xlink" x="0px" y="0px"
	 viewBox="0 0 153 47.9" style="enable-background:new 0 0 153 47.9;" xml:space="preserve">
<style type="text/css">
	.st0{opacity:0.6;}
	.st1{clip-path:url(#SVGID_2_);}
	.st2{fill:#0033C7;}
	.st3{enable-background:new    ;}
	.st4{fill:#000614;}
</style>
<g>
	<g class="st0">
		<g>
			<defs>
				<rect id="SVGID_1_" x="2" y="19" width="24.5" height="24.5"/>
			</defs>
			<clipPath id="SVGID_2_">
				<use xlink:href="#SVGID_1_"  style="overflow:visible;"/>
			</clipPath>
			<g class="st1">
				<path class="st2" d="M2,19L2,19c0,13.5,11,24.5,24.5,24.5l0,0V19H2z M7.2,24.2h14.1v14.1C21.3,38.3,11.9,35.4,7.2,24.2"/>
			</g>
		</g>
	</g>
	<path class="st2" d="M11.1,33.1h24.5V8.6H11.1V33.1z M30.4,27.9H16.3V13.8h14.1L30.4,27.9z"/>
</g>
<g class="st3">
	<path class="st4" d="M53.9,23.9v13.8h-6.9V23.9h-2.3v-5.7h2.3v-5.9h6.9v5.9h3.9v5.7H53.9z"/>
	<path class="st4" d="M66.2,29.1c0,3,1.4,4.4,4.2,4.4c1.5,0,2.6-0.6,3.4-1.8h6.7c-1.3,4.5-4.7,6.7-10.1,6.7c-1.6,0-3.2-0.2-4.5-0.7
		c-1.4-0.5-2.5-1.2-3.5-2.1s-1.7-2-2.3-3.3c-0.5-1.3-0.8-2.7-0.8-4.3c0-1.6,0.3-3.1,0.8-4.4c0.5-1.3,1.2-2.4,2.2-3.3
		c0.9-0.9,2.1-1.6,3.4-2.1c1.3-0.5,2.8-0.7,4.5-0.7c1.6,0,3.1,0.2,4.4,0.7c1.3,0.5,2.4,1.2,3.3,2.1c0.9,0.9,1.6,2.1,2.1,3.4
		c0.5,1.4,0.7,2.9,0.7,4.6v0.7H66.2z M74.3,25.1c-0.2-1-0.7-1.7-1.4-2.3c-0.7-0.6-1.6-0.9-2.6-0.9c-1.1,0-1.9,0.3-2.6,0.8
		c-0.7,0.6-1.1,1.3-1.3,2.4H74.3z"/>
	<path class="st4" d="M98.9,6.2h6.9v31.5h-6.9v-2.2c-1.5,1.8-3.5,2.8-6,2.8c-1.4,0-2.7-0.3-3.9-0.8c-1.2-0.5-2.2-1.3-3.1-2.2
		s-1.6-2-2.1-3.3c-0.5-1.3-0.7-2.6-0.7-4.1c0-1.4,0.2-2.7,0.7-4s1.1-2.3,2-3.3s1.9-1.7,3.1-2.2c1.2-0.5,2.5-0.8,4-0.8
		c2.4,0,4.4,0.8,6,2.5V6.2z M90.3,27.9c0,0.6,0.1,1.2,0.3,1.8c0.2,0.5,0.5,1,0.9,1.4c0.4,0.4,0.9,0.7,1.4,1c0.5,0.2,1.1,0.3,1.8,0.3
		c0.6,0,1.2-0.1,1.7-0.3c0.5-0.2,1-0.5,1.4-1c0.4-0.4,0.7-0.9,1-1.4c0.2-0.5,0.4-1.1,0.4-1.7c0-0.6-0.1-1.2-0.4-1.7
		c-0.2-0.5-0.6-1-1-1.4c-0.4-0.4-0.9-0.7-1.4-1c-0.5-0.2-1.1-0.3-1.7-0.3c-0.6,0-1.2,0.1-1.7,0.3c-0.5,0.2-1,0.5-1.4,1
		s-0.7,0.9-0.9,1.4C90.4,26.7,90.3,27.3,90.3,27.9z"/>
	<path class="st4" d="M109.3,10.7c0-0.5,0.1-1,0.3-1.5c0.2-0.5,0.5-0.9,0.8-1.2s0.8-0.6,1.2-0.8s1-0.3,1.5-0.3s1,0.1,1.5,0.3
		s0.9,0.5,1.2,0.8c0.4,0.4,0.6,0.8,0.8,1.2c0.2,0.5,0.3,1,0.3,1.5c0,0.5-0.1,1-0.3,1.5c-0.2,0.5-0.5,0.9-0.8,1.2
		c-0.4,0.4-0.8,0.6-1.2,0.8c-0.5,0.2-1,0.3-1.5,0.3s-1-0.1-1.5-0.3c-0.5-0.2-0.9-0.5-1.2-0.8c-0.4-0.4-0.6-0.8-0.8-1.2
		C109.4,11.7,109.3,11.2,109.3,10.7z M116.6,18.2v19.5h-6.9V18.2H116.6z"/>
	<path class="st4" d="M127.5,6.2v14c1.6-1.7,3.6-2.5,6.1-2.5c1.4,0,2.8,0.3,4,0.8c1.2,0.5,2.2,1.3,3.1,2.2s1.5,2,2,3.3
		c0.5,1.3,0.7,2.6,0.7,4c0,1.4-0.2,2.8-0.7,4.1c-0.5,1.3-1.2,2.4-2.1,3.3s-1.9,1.7-3.1,2.2s-2.5,0.8-3.9,0.8c-2.5,0-4.5-0.9-6-2.8
		v2.2h-6.9V6.2H127.5z M136.1,28c0-0.6-0.1-1.2-0.3-1.7c-0.2-0.5-0.5-1-1-1.4s-0.9-0.7-1.4-1c-0.5-0.2-1.1-0.4-1.7-0.4
		c-0.6,0-1.2,0.1-1.7,0.3c-0.5,0.2-1,0.5-1.4,1s-0.7,0.9-1,1.4c-0.2,0.5-0.4,1.1-0.4,1.7c0,0.6,0.1,1.2,0.3,1.7c0.2,0.5,0.5,1,1,1.4
		c0.4,0.4,0.9,0.7,1.4,1s1.1,0.4,1.7,0.4c0.6,0,1.2-0.1,1.7-0.3c0.5-0.2,1-0.5,1.4-1c0.4-0.4,0.7-0.9,1-1.4
		C136,29.1,136.1,28.6,136.1,28z"/>
</g>
</svg>
